<svg xmlns="http://www.w3.org/2000/svg" width="56" height="56" viewBox="0 0 56 56">
	<style type="text/css">
		.st2{fill:#000000;stroke-linecap:round;stroke-linejoin:round;}
		.st1{stroke-linecap:round;stroke-linejoin:round;}
		.st0{stroke:#000000;fill:none;stroke-width:2;stroke-linecap:round;stroke-linejoin:round;}
	</style>
	<path class="st0" d="M37.68,13.97L27.61,23.16L39.17,23.16L29.4,31.07L37.68,13.97Z"/>
	<path class="st2" d="M33.35,8.22C25.39,8.22 18.93,14.68 18.93,22.64C18.93,30.6 25.39,37.06 33.35,37.06C41.31,37.06 47.77,30.6 47.77,22.64C47.77,14.68 41.31,8.22 33.35,8.22M33.35,10.22C40.2,10.22 45.77,15.79 45.77,22.64C45.77,29.49 40.2,35.06 33.35,35.06C26.5,35.06 20.93,29.49 20.93,22.64C20.93,15.79 26.5,10.22 33.35,10.22"/>
	<path class="st0" d="M23.56,32.43L11.33,44.66"/>
	<path class="st2" d="M28,0C12.53,0 0,12.53 0,28C0,43.46 12.53,56 28,56C43.46,56 56,43.46 56,28C56,12.53 43.46,0 28,0M28,2C42.33,2 54,13.66 54,28C54,42.33 42.33,54 28,54C13.66,54 2,42.33 2,28C2,13.66 13.66,2 28,2"/>
</svg>