<svg xmlns="http://www.w3.org/2000/svg" width="72" height="72" viewBox="0 0 72 72">
	<style type="text/css">
		.st2{stroke:#000000;fill:none;stroke-width:2;stroke-linejoin:round;}
		.st1{stroke:#000000;fill:none;stroke-width:2;stroke-linecap:round;}
		.st0{fill:#000000;}
	</style>
	<path class="st0" d="M36,0C16.11,0 0,16.11 0,36C0,55.88 16.11,72 36,72C55.88,72 72,55.88 72,36C72,16.11 55.88,0 36,0M36,2C54.74,2 70,17.25 70,36C70,54.74 54.74,70 36,70C17.25,70 2,54.74 2,36C2,17.25 17.25,2 36,2"/>
	<path class="st0" d="M49,41.17C47.09,42.53 44.95,43.59 42.66,44.3L35.99,50.97L29.33,44.3C27.04,43.59 24.9,42.53 22.99,41.17C16.71,45.17 11.81,51.98 9.38,60.23C15.96,67.46 25.45,71.99 35.99,71.99C46.54,71.99 56.03,67.46 62.61,60.23C60.18,51.98 55.28,45.17 49,41.17M49,43.58C54.14,47.23 58.13,52.89 60.35,59.71C53.97,66.26 45.16,69.99 35.99,69.99C26.83,69.99 18.02,66.26 11.64,59.71C13.86,52.89 17.85,47.23 22.99,43.58C24.63,44.61 26.4,45.44 28.25,46.05L34.58,52.38C34.96,52.76 35.46,52.97 35.99,52.97C36.52,52.97 37.03,52.76 37.41,52.38L43.74,46.05C45.59,45.44 47.35,44.61 49,43.58"/>
	<path class="st1" d="M39.75,33.94C38.58,34.64 37.21,35.04 35.74,35.04C34.48,35.04 33.29,34.74 32.24,34.21"/>
	<path class="st2" d="M49.69,20.44C48.78,13.8 42.99,8.67 35.99,8.67C35.52,8.67 35.06,8.7 34.6,8.75C34.18,7.9 33.84,7.09 33.68,6.44C33.24,4.64 31.77,6.54 31.73,9.35C31.24,9.5 30.76,9.69 30.3,9.89C28.7,8.98 27.17,7.97 26.3,7.07C24.62,5.33 24.37,9.06 26.75,12.18C24.38,14.28 22.75,17.17 22.3,20.44C20.59,20.79 18.92,23.25 19.35,26.02C19.72,28.49 21.76,31.62 23.29,31.9C25.41,38.83 32.67,42.1 35.99,42.1C39.1,42.1 46.58,38.83 48.7,31.9C50.23,31.62 52.27,28.49 52.64,26.02C53.06,23.25 51.4,20.79 49.69,20.44Z"/>
	<path class="st1" d="M28.31,25.22C28.81,24.85 29.43,24.62 30.1,24.62C30.85,24.62 31.54,24.91 32.07,25.37"/>
	<path class="st1" d="M39.92,25.22C40.42,24.85 41.04,24.62 41.71,24.62C42.46,24.62 43.15,24.91 43.68,25.37"/>
</svg>